<svg height="512" viewBox="0 0 64 64" width="512" xmlns="http://www.w3.org/2000/svg"><path d="m12 19h-10a1 1 0 0 0 -1 1v10a1 1 0 0 0 1 1h10a1 1 0 0 0 1-1v-10a1 1 0 0 0 -1-1zm-1 10h-8v-8h8z"/><path d="m62 19h-46a1 1 0 0 0 -1 1v10a1 1 0 0 0 1 1h46a1 1 0 0 0 1-1v-10a1 1 0 0 0 -1-1zm-1 10h-44v-8h44z"/><path d="m12 5h-10a1 1 0 0 0 -1 1v10a1 1 0 0 0 1 1h10a1 1 0 0 0 1-1v-10a1 1 0 0 0 -1-1zm-1 10h-8v-8h8z"/><path d="m62 5h-46a1 1 0 0 0 -1 1v10a1 1 0 0 0 1 1h46a1 1 0 0 0 1-1v-10a1 1 0 0 0 -1-1zm-1 10h-44v-8h44z"/><path d="m12 33h-10a1 1 0 0 0 -1 1v10a1 1 0 0 0 1 1h10a1 1 0 0 0 1-1v-10a1 1 0 0 0 -1-1zm-1 10h-8v-8h8z"/><path d="m62 33h-46a1 1 0 0 0 -1 1v10a1 1 0 0 0 1 1h46a1 1 0 0 0 1-1v-10a1 1 0 0 0 -1-1zm-1 10h-44v-8h44z"/><path d="m12 47h-10a1 1 0 0 0 -1 1v10a1 1 0 0 0 1 1h10a1 1 0 0 0 1-1v-10a1 1 0 0 0 -1-1zm-1 10h-8v-8h8z"/><path d="m62 47h-46a1 1 0 0 0 -1 1v10a1 1 0 0 0 1 1h46a1 1 0 0 0 1-1v-10a1 1 0 0 0 -1-1zm-1 10h-44v-8h44z"/><path d="m48 56h7a1 1 0 0 0 0-2h-7a1 1 0 0 0 0 2z"/><path d="m58 56h1a1 1 0 0 0 0-2h-1a1 1 0 0 0 0 2z"/></svg>