<?xml version="1.0"?>
<svg xmlns="http://www.w3.org/2000/svg" viewBox="0 0 64 64" width="512" height="512"><g id="Grid"><path d="M40,23H24a1,1,0,0,0-1,1V40a1,1,0,0,0,1,1H40a1,1,0,0,0,1-1V24A1,1,0,0,0,40,23ZM39,39H25V25H39Z"/><path d="M40,1H24a1,1,0,0,0-1,1V18a1,1,0,0,0,1,1H40a1,1,0,0,0,1-1V2A1,1,0,0,0,40,1ZM39,17H25V3H39Z"/><path d="M40,45H24a1,1,0,0,0-1,1V62a1,1,0,0,0,1,1H40a1,1,0,0,0,1-1V46A1,1,0,0,0,40,45ZM39,61H25V47H39Z"/><path d="M18,23H2a1,1,0,0,0-1,1V40a1,1,0,0,0,1,1H18a1,1,0,0,0,1-1V24A1,1,0,0,0,18,23ZM17,39H3V25H17Z"/><path d="M18,1H2A1,1,0,0,0,1,2V18a1,1,0,0,0,1,1H18a1,1,0,0,0,1-1V2A1,1,0,0,0,18,1ZM17,17H3V3H17Z"/><path d="M18,45H2a1,1,0,0,0-1,1V62a1,1,0,0,0,1,1H18a1,1,0,0,0,1-1V46A1,1,0,0,0,18,45ZM17,61H3V47H17Z"/><path d="M62,23H46a1,1,0,0,0-1,1V40a1,1,0,0,0,1,1H62a1,1,0,0,0,1-1V24A1,1,0,0,0,62,23ZM61,39H47V25H61Z"/><path d="M62,1H46a1,1,0,0,0-1,1V18a1,1,0,0,0,1,1H62a1,1,0,0,0,1-1V2A1,1,0,0,0,62,1ZM61,17H47V3H61Z"/><path d="M62,45H46a1,1,0,0,0-1,1V62a1,1,0,0,0,1,1H62a1,1,0,0,0,1-1V46A1,1,0,0,0,62,45ZM61,61H47V47H61Z"/><path d="M5,6h5a1,1,0,0,0,0-2H5A1,1,0,0,0,5,6Z"/><path d="M13,6h1a1,1,0,0,0,0-2H13a1,1,0,0,0,0,2Z"/></g></svg>
